# xmcd
#
# Track frame offsets: 
#        150
#        49847
#        73471
#        101095
#        126287
#        145363
#        159441
#        185630
#        209509
#        229711
#        247512
#        271896
#        308698
#        330481
#
# Disc length: 4632 seconds
#
# Revision: 0
# Processed by: cddbd v1.5.2PL0 Copyright (c) Steve Scherf et al.
# Submitted via: ExactAudioCopy v0.99pb4
#
DISCID=cc12160e
DTITLE=Adriano_Celentano - L'animale_2
DYEAR=2008
DGENRE=pop_italiano
TTITLE0=Sognando Cernobyl
TTITLE1=La Situazione non è buona
TTITLE2=Mondo in Mi 7a
TTITLE3=I passi che facciamo
TTITLE4=Il ragazzo della Via Gluck
TTITLE5=Svalutation
TTITLE6=Io sono un uomo libero
TTITLE7=Prisencontinetinalciuso
TTITLE8=Aria..non sei più tu
TTITLE9=Un albero di 30 piani
TTITLE10=C'è sempre un motivo
TTITLE11=I wanr to know
TTITLE12=L'ultimo degli uccelli
TTITLE13=Uomo macchina
EXTD=
EXTT0=
EXTT1=
EXTT2=
EXTT3=
EXTT4=
EXTT5=
EXTT6=
EXTT7=
EXTT8=
EXTT9=
EXTT10=
EXTT11=
EXTT12=
EXTT13=
PLAYORDER=
